<svg version="1" xmlns="http://www.w3.org/2000/svg" width="496" height="496" viewBox="0 0 372.000000 372.000000"><path d="M.2 116c.2 2.9.3 3 5.5 3 2.9 0 5.4-.1 5.6-.1.1-.1 2.1.7 4.3 1.9 2.7 1.4 4.8 3.4 6 5.9 1.8 3.6 1.9 7 1.9 61.9v58l-2.8 4.3c-3.5 5.3-7.4 6.7-18.9 7.1-1.2 0-1.8.8-1.8 2.5 0 2 .5 2.5 2.8 2.6 2.9 0 50.6 0 53.2-.1 1.6 0 2.5-3.6 1.1-4.5-.5-.2-3.3-.7-6.3-.9-6.8-.6-9.7-1.7-12.5-4.7-4.3-4.8-4.6-8.6-4.7-60.7-.1-27 .1-49.2.4-49.2.3 0 12.7 27.8 27.4 61.7 14.8 34 26.9 61.9 27 62 0 0 1 .3 2 .5 1.6.2 2.6-1.2 5.2-7.2 1.8-4.1 4.3-9.8 5.5-12.5 4.2-9.6 5.7-13.1 9.9-23 2.3-5.5 5.1-11.8 6-14 1-2.2 4.6-10.5 8.1-18.5 3.4-8 7-16.3 8-18.5.9-2.2 3.8-8.7 6.3-14.5l4.6-10.5-.1 45.9c0 27.4-.4 47.8-1 50.5-1.6 7.2-4.9 10.8-11.3 12.1-2.9.6-5.7 1-6.2.9-3.6-.6-5.4.2-5.4 2.6 0 1.9.5 2.5 2.3 2.5 3.1.1 56.3.1 61.5.1 3.8-.1 4.2-.3 4.2-2.6 0-1.4-.3-2.5-.7-2.5-14.1-.9-17.6-2.3-20.8-8.5-1.9-3.9-2-6-2-61 0-54.3.1-57.3 1.9-61.4 2.5-5.3 6-7.3 14.8-7.9 6.7-.5 6.8-.5 6.8-3.3V113h-39.6l-5.4 12.7c-2.9 7.1-6.6 15.5-8.1 18.8-1.4 3.3-8.4 19.3-15.3 35.5-7 16.2-13.8 31.9-15.2 34.8-1.3 2.9-2.4 5.4-2.4 5.6 0 .2-1.4 3.5-3.1 7.2l-3 6.8-8.3-18.9c-4.5-10.5-9-20.8-10-23-1-2.2-9.1-20.9-18-41.5l-16.3-37.5-21.7-.3L0 113l.2 3zM206.5 115.2c.1 1.3.3 2.6.4 3 0 .5 2.5.8 5.4.9 10.8.1 15.9 4.2 17.2 14 .9 6.7 1 103 0 109.7-.8 5.9-3.9 11.1-7.6 12.9-2.1 1-8 1.9-14.4 2.3-.5 0-1.1 1.1-1.1 2.5-.2 2.8-4 2.5 33.1 2.6 26.8.1 24.5.3 24.5-2.6 0-1.4-.3-2.5-.7-2.6-.5 0-3.3-.2-6.5-.4-10.7-.7-15.2-5.1-16.4-16.3-.7-6.8-1-97-.3-97.7.3-.2 3.4 3.3 7 7.8s11.7 14.5 18 22.2c6.2 7.7 25.7 31.8 43.2 53.5 17.6 21.7 32.1 39.6 32.2 39.8.2.2 1.7.5 3.4.7 2.8.4 3.1.1 3.2-2.3 0-1.5.1-31.1.1-65.7.1-67.3.4-71.3 5-76.2 2.6-2.8 7.6-4.3 14.1-4.3 4.6 0 4.7-.1 4.7-3v-3h-57v3c0 3 .1 3 5.5 3 8.4 0 13 2.3 15.7 7.8l2.3 4.7.1 49.9.1 50-2.6-3c-1.4-1.7-11.4-14-22.1-27.4-10.7-13.3-20-24.8-20.5-25.4-.6-.6-6.6-8.1-13.5-16.6-6.8-8.5-14.6-18.2-17.3-21.5-2.7-3.3-5.4-6.7-6-7.5-.7-.8-4-5-7.5-9.3l-6.3-7.7h-35.6l.2 2.2z"/></svg>